<?xml version="1.0" encoding="UTF-8"?>
<svg id="uuid-31341c92-a318-4fec-8ace-fe8b13377b32" data-name="Layer 1" xmlns="http://www.w3.org/2000/svg" viewBox="0 0 500 500">
  <defs>
    <style>
      .uuid-79743bb6-8af9-4158-a061-3af1b30fa774 {
        stroke-width: 0px;
      }
    </style>
  </defs>
  <path class="uuid-79743bb6-8af9-4158-a061-3af1b30fa774" d="m249.62,454.29c-97.17-.73-181.91-66.85-201.49-161.08-16.77-80.7,8.29-148.58,71.32-201.62,31.93-26.87,69.69-41.41,111.15-45.04,104.19-9.13,196.73,57.03,220.14,155.42,16.54,69.51-.19,131.82-48.05,184.97-31.95,35.48-72.43,56.24-119.4,64.12-11.09,1.86-22.44,2.2-33.67,3.23Zm193.53-204.16c.04-20.74-3.1-40.97-9.86-60.59-31.48-91.33-124.12-144.74-219.79-127.09-89.63,16.54-160.36,96.83-156.73,194.21,1.1,29.61,8.63,57.47,22.96,83.39,41.41,74.91,125.41,113.48,209.45,96.29,89.57-18.33,153.87-96.08,153.97-186.21Z"/>
  <path class="uuid-79743bb6-8af9-4158-a061-3af1b30fa774" d="m250.29,427.8c-84.22-.04-157.44-57.47-176.34-138.63-18.07-77.57,19.15-158.59,90.15-196.26,94.81-50.31,210.85-9.39,253.06,89.24,28.79,67.28,9.69,150.32-45.3,198.77-28,24.67-60.25,39.72-97.07,45-8.09,1.16-16.33,1.28-24.5,1.88Zm-45.86-162.04v48.69c4.13,1.49,6.55.68,8.41-3.41,2.83-6.23,4.01-6.38,10.53-3.78,3.89,1.55,7.75,3.16,11.68,4.6,10.23,3.74,20.73,4.17,31.2,1.55,23.44-5.85,37.2-27.84,30.89-49.31-3.48-11.85-11.67-20.14-22-26.17-8.96-5.22-18.38-9.66-27.61-14.41-7.16-3.68-13.1-8.67-16.6-16.07-5.38-11.38,2.12-23.7,14.73-24.38,16.2-.88,28.2,7.89,32.58,24.11,1.21,4.49,1.68,9.19,2.56,14.17,2.15-.13,4.03-.23,6.03-.35v-50.42c-3.07,1.5-5.67,2.15-7.36,3.76-2.12,2.02-3.49,4.82-5.39,7.58-10.92-8.75-22.81-10.14-35.34-8.78-16.13,1.75-30.5,14.44-32.22,29.58-1.73,15.19,3.04,28.46,16,37.23,9.31,6.3,19.6,11.15,29.43,16.7,4.75,2.68,9.78,5.02,14.09,8.3,8.82,6.71,11.77,17.26,8.19,26.79-3.23,8.6-11.15,13.07-22.59,12.77-16.85-.45-33.28-14.34-38.83-32.82-.61-2.03-1.22-4.07-1.77-5.92h-6.62Zm-21.01-29.42c8.03-6.38,11.83-14.5,8.53-24.56-3.33-10.15-11.35-15.31-21.56-15.72-17.84-.73-35.73-.58-53.59-.65-1.02,0-2.05,1.35-3.08,2.07,1.17,1.03,2.22,2.73,3.54,2.98,8.39,1.56,10.1,2.42,10.26,10.59.4,20.04.33,40.09-.11,60.13-.16,7.39-2.03,8.43-9.19,9.84-1.59.31-2.96,1.73-4.44,2.64,1.73.77,3.45,2.21,5.18,2.22,17.33.17,34.66.32,51.99-.03,4.8-.1,9.86-1.16,14.29-3.01,15.75-6.56,20.27-25.42,9.14-38-2.91-3.29-7.04-5.51-10.97-8.5Zm191.62-33.51c-1.09-.89-2.45-2.05-3.84-3.15-8.56-6.74-18.21-9.91-29.09-8.4-22.81,3.17-38.26,19.01-41.4,42.19-4.13,30.52,23.8,57.46,54.03,51.77,10.65-2.01,21.09-5.13,32.19-7.88,0-3.07,0-6.69,0-10.31.02-13.4.86-14.42,13.82-16.63,1.23-2.95.42-4.35-2.97-4.33-12.77.06-25.54.06-38.31,0-3.55-.02-3.95,1.61-2.85,4.38,10.84,1.69,13.1,3.17,13.68,8.9.78,7.75-4.04,14.94-11.86,17.69-14.47,5.08-27.37-.57-32.91-14.94-5.86-15.2-5.87-30.79-.48-46.05,6.72-19,27.84-24.01,42.23-9.73,4.81,4.77,7.47,11.8,10.71,18.01,1.34,2.56,1.87,5.2,5.57,3.17v-31.99c-6.88-1.91-4.26,6.2-8.51,7.3Zm-58.66,161.16c-1.86,5.5-3.63,10.73-5.39,15.95.31.22.62.44.93.66,4.29-3.51,8.58-7.01,13.11-10.71,4.78,3.51,9.41,6.91,14.04,10.32.27-.18.53-.35.8-.53-2.16-5.28-4.32-10.57-6.56-16.04,4.72-3.39,9.29-6.67,13.86-9.95-4.69-.69-8.85-.43-12.98.1-3.18.41-5.01-.33-5.8-3.85-.97-4.35-2.61-8.55-4.39-14.15-1.79,7.01-3.21,12.54-4.69,18.33h-19.11c6.21,3.78,11.09,6.76,16.19,9.87Zm-68.13,2.12c-.38-.02-.76-.04-1.13-.06-1.37,5.36-2.75,10.72-4.21,16.44h-18.93c6.23,3.85,11.06,6.85,16.03,9.92-1.94,5.65-3.78,11-5.63,16.35.31.16.61.32.92.48,4.41-3.65,8.81-7.31,13.27-11,4.91,3.57,9.45,6.87,13.99,10.17.25-.24.5-.49.74-.73-2.09-5.16-4.18-10.32-6.37-15.72,4.77-3.4,9.36-6.66,13.95-9.93-.16-.33-.31-.66-.47-.98-5.57.41-11.14.81-16.99,1.24-1.77-5.55-3.46-10.87-5.15-16.18Zm-64.62,13.54c.28-.21.55-.42.83-.64-2.19-5.25-4.37-10.49-6.64-15.94,5.05-3.49,9.75-6.74,15.8-10.92-6.33.39-10.97.51-15.57,1.01-2.95.32-4.25-.68-4.97-3.54-1.09-4.32-2.64-8.51-4.48-14.3-1.84,7.19-3.25,12.7-4.73,18.48h-18.66c6.09,3.76,10.79,6.66,15.71,9.7-1.82,5.56-3.56,10.85-5.29,16.14.34.16.67.33,1.01.49,4.29-3.56,8.59-7.13,12.96-10.76,4.83,3.54,9.43,6.91,14.03,10.27Z"/>
  <path class="uuid-79743bb6-8af9-4158-a061-3af1b30fa774" d="m147.35,241.42c7.13.46,13.72.21,20.02,1.47,8.33,1.66,13.17,9.95,12.36,19.29-.77,8.92-6.95,15.39-15.53,16.24-1.45.14-2.9.28-4.35.29-8.9.03-11.95-2.47-12.4-11.37-.42-8.14-.09-16.32-.09-25.91Z"/>
  <path class="uuid-79743bb6-8af9-4158-a061-3af1b30fa774" d="m147.74,202.9c8.38-.15,16.78-1.48,22.02,6.77,3.6,5.66,3.69,11.85.38,17.65-5.08,8.88-13.81,7.18-22.4,7.08v-31.5Z"/>
</svg>